<svg width="990" height="88" viewBox="0 0 990 88" fill="none" xmlns="http://www.w3.org/2000/svg">
<rect width="990" height="88" fill="white"/>
<g clip-path="url(#clip0_841_408)">
<path d="M196.438 84.625C203.875 84.625 209.875 78.625 209.875 71.1875V57.75H196.438C189 57.75 183 63.75 183 71.1875C183 78.625 189 84.625 196.438 84.625Z" fill="#0ACF83"/>
<path d="M183 44.3125C183 36.875 189 30.875 196.438 30.875H209.875V57.75H196.438C189 57.75 183 51.75 183 44.3125Z" fill="#A259FF"/>
<path d="M183 17.4375C183 10 189 4 196.438 4H209.875V30.875H196.438C189 30.875 183 24.875 183 17.4375Z" fill="#F24E1E"/>
<path d="M209.875 4H223.312C230.75 4 236.75 10 236.75 17.4375C236.75 24.875 230.75 30.875 223.312 30.875H209.875V4Z" fill="#FF7262"/>
<path d="M236.75 44.3125C236.75 51.75 230.75 57.75 223.312 57.75C215.875 57.75 209.875 51.75 209.875 44.3125C209.875 36.875 215.875 30.875 223.312 30.875C230.75 30.875 236.75 36.875 236.75 44.3125Z" fill="#1ABCFE"/>
</g>
<g clip-path="url(#clip1_841_408)">
<mask id="mask0_841_408" style="mask-type:luminance" maskUnits="userSpaceOnUse" x="11" y="1" width="64" height="85">
<path d="M46.3476 4.53471C46.3476 2.58269 47.9303 1 49.8823 1H71.091C73.043 1 74.6257 2.58269 74.6257 4.53471V82.2998C74.6257 84.2518 73.043 85.8342 71.091 85.8342H14.5347C12.5827 85.8342 11 84.2518 11 82.2995V46.9522C11 44.9999 12.5827 43.4175 14.5347 43.4175H28.674V25.7435C28.674 23.7912 30.2565 22.2085 32.2087 22.2085H46.3476V4.53471Z" fill="white"/>
</mask>
<g mask="url(#mask0_841_408)">
<path d="M74.6257 1V85.8342H46.3476V1H74.6257Z" fill="url(#paint0_linear_841_408)"/>
</g>
<mask id="mask1_841_408" style="mask-type:luminance" maskUnits="userSpaceOnUse" x="11" y="1" width="64" height="85">
<path d="M46.3476 4.53471C46.3476 2.58269 47.9303 1 49.8823 1H71.091C73.043 1 74.6257 2.58269 74.6257 4.53471V82.2998C74.6257 84.2518 73.043 85.8342 71.091 85.8342H14.5347C12.5827 85.8342 11 84.2518 11 82.2995V46.9522C11 44.9999 12.5827 43.4175 14.5347 43.4175H28.674V25.7435C28.674 23.7912 30.2565 22.2085 32.2087 22.2085H46.3476V4.53471Z" fill="white"/>
</mask>
<g mask="url(#mask1_841_408)">
<path d="M56.9519 26.0969V86.1879H28.6735V22.5622H53.417C55.369 22.5622 56.9517 24.1446 56.9517 26.0969" fill="black" fill-opacity="0.2"/>
</g>
<mask id="mask2_841_408" style="mask-type:luminance" maskUnits="userSpaceOnUse" x="11" y="1" width="64" height="85">
<path d="M46.3476 4.53471C46.3476 2.58269 47.9303 1 49.8823 1H71.091C73.043 1 74.6257 2.58269 74.6257 4.53471V82.2998C74.6257 84.2518 73.043 85.8342 71.091 85.8342H14.5347C12.5827 85.8342 11 84.2518 11 82.2995V46.9522C11 44.9999 12.5827 43.4175 14.5347 43.4175H28.674V25.7435C28.674 23.7912 30.2565 22.2085 32.2087 22.2085H46.3476V4.53471Z" fill="white"/>
</mask>
<g mask="url(#mask2_841_408)">
<path d="M56.9519 27.5108V87.6016H28.6735V23.9758H53.417C55.369 23.9758 56.9517 25.5585 56.9517 27.5108" fill="black" fill-opacity="0.18"/>
</g>
<mask id="mask3_841_408" style="mask-type:luminance" maskUnits="userSpaceOnUse" x="11" y="1" width="64" height="85">
<path d="M46.3476 4.53471C46.3476 2.58269 47.9303 1 49.8823 1H71.091C73.043 1 74.6257 2.58269 74.6257 4.53471V82.2998C74.6257 84.2518 73.043 85.8342 71.091 85.8342H14.5347C12.5827 85.8342 11 84.2518 11 82.2995V46.9522C11 44.9999 12.5827 43.4175 14.5347 43.4175H28.674V25.7435C28.674 23.7912 30.2565 22.2085 32.2087 22.2085H46.3476V4.53471Z" fill="white"/>
</mask>
<g mask="url(#mask3_841_408)">
<path d="M56.9519 25.7435V85.8342H28.6735V22.2085H53.417C55.369 22.2085 56.9517 23.7912 56.9517 25.7435" fill="url(#paint1_linear_841_408)"/>
</g>
<mask id="mask4_841_408" style="mask-type:luminance" maskUnits="userSpaceOnUse" x="11" y="1" width="64" height="85">
<path d="M46.3476 4.53471C46.3476 2.58269 47.9303 1 49.8823 1H71.091C73.043 1 74.6257 2.58269 74.6257 4.53471V82.2998C74.6257 84.2518 73.043 85.8342 71.091 85.8342H14.5347C12.5827 85.8342 11 84.2518 11 82.2995V46.9522C11 44.9999 12.5827 43.4175 14.5347 43.4175H28.674V25.7435C28.674 23.7912 30.2565 22.2085 32.2087 22.2085H46.3476V4.53471Z" fill="white"/>
</mask>
<g mask="url(#mask4_841_408)">
<path d="M11 43.4172V85.8342H39.2782V46.9522C39.2782 44.9999 37.6955 43.4175 35.7435 43.4175L11 43.4172Z" fill="url(#paint2_linear_841_408)"/>
</g>
</g>
<path d="M94.6772 73.2527L88.7112 6.3125H154.289L148.315 73.242L121.46 80.6875L94.6772 73.2527Z" fill="#1572B6"/>
<path d="M121.5 74.9978L143.202 68.9814L148.307 11.787H121.5V74.9978Z" fill="#33A9DC"/>
<path d="M121.5 36.0386H132.364L133.113 27.6316H121.5V19.4211H142.086L141.889 21.6231L139.873 44.2491H121.5V36.0386Z" fill="white"/>
<path d="M121.55 57.3603L121.513 57.3709L112.37 54.9006L111.786 48.353H103.544L104.694 61.2437L121.511 65.9134L121.55 65.9028V57.3603Z" fill="#EBEBEB"/>
<path d="M131.665 43.9011L130.677 54.8953L121.521 57.3656V65.9081L138.351 61.2438L138.476 59.8572L139.902 43.9011H131.665Z" fill="white"/>
<path d="M121.529 19.4211V27.6316H101.698L101.533 25.7855L101.158 21.6231L100.962 19.4211H121.529ZM121.5 36.0386V44.2491H112.471L112.307 42.403L111.935 38.2406L111.738 36.0386H121.5Z" fill="#EBEBEB"/>
<path d="M267.677 73.2527L261.709 6.3125H327.291L321.315 73.242L294.46 80.6875L267.677 73.2527Z" fill="#E44F26"/>
<path d="M294.5 74.9978L316.202 68.9814L321.307 11.787H294.5V74.9978Z" fill="#F1662A"/>
<path d="M294.5 36.6123H283.636L282.887 28.2053H294.5V19.9948H273.914L274.111 22.1995L276.127 44.8228H294.5V36.6123ZM294.5 57.9341L294.463 57.9447L285.32 55.477L284.736 48.9294H276.493L277.643 61.8175L294.463 66.4872L294.5 66.4766V57.9341Z" fill="#EBEBEB"/>
<path d="M294.471 36.6123V44.8228H304.58L303.63 55.4717L294.471 57.942V66.4845L311.303 61.8175L311.426 60.4309L313.354 38.817L313.556 36.6123H294.471ZM294.471 19.9948V28.2053H314.302L314.467 26.3619L314.842 22.1995L315.038 19.9948H294.471Z" fill="white"/>
<g clip-path="url(#clip2_841_408)">
<path d="M406.078 1H360.922C349.919 1 341 9.91933 341 20.9219V66.0781C341 77.0807 349.919 86 360.922 86H406.078C417.081 86 426 77.0807 426 66.0781V20.9219C426 9.91933 417.081 1 406.078 1Z" fill="#242938"/>
<mask id="mask5_841_408" style="mask-type:luminance" maskUnits="userSpaceOnUse" x="353" y="13" width="61" height="61">
<path d="M353.617 13.6172H413.383V73.3828H353.617V13.6172Z" fill="white"/>
</mask>
<g mask="url(#mask5_841_408)">
<path fill-rule="evenodd" clip-rule="evenodd" d="M408.668 60.1713C405.418 60.081 402.896 60.414 400.783 61.3032C400.174 61.5476 399.197 61.5476 399.117 62.3136C399.442 62.635 399.482 63.1609 399.767 63.6065C400.254 64.415 401.109 65.5041 401.88 66.0692L404.481 67.9279C406.066 68.8964 407.855 69.4625 409.399 70.4321C410.294 70.9978 411.187 71.725 412.082 72.3316C412.537 72.6547 412.813 73.1809 413.383 73.3818V73.2596C413.099 72.8974 413.017 72.3724 412.733 71.9667L411.512 70.796C410.335 69.2208 408.871 67.8462 407.285 66.7163C405.984 65.8274 403.14 64.6159 402.612 63.1221L402.532 63.0314C403.425 62.9411 404.481 62.6267 405.336 62.3843C406.719 62.022 407.978 62.1017 409.399 61.7385L411.351 61.1727V60.8105C410.62 60.0836 410.091 59.1138 409.32 58.4278C407.247 56.6504 404.969 54.9129 402.612 53.459C401.352 52.6515 399.726 52.1252 398.385 51.4399C397.896 51.1972 397.084 51.076 396.8 50.6722C396.066 49.785 395.661 48.6123 395.132 47.5614L391.8 40.533C391.068 38.9575 390.62 37.382 389.727 35.928C385.54 29.0606 380.987 24.9006 373.996 20.8199C372.492 19.9716 370.704 19.6067 368.803 19.1631L365.755 19.0004C365.103 18.7179 364.453 17.9499 363.884 17.586C361.567 16.1317 355.592 12.9814 353.883 17.1334C352.786 19.7588 355.51 22.3436 356.435 23.6774C357.127 24.6064 358.02 25.6563 358.509 26.7069C358.782 27.3932 358.874 28.121 359.159 28.8481C359.808 30.6252 360.419 32.6054 361.272 34.2622C361.728 35.1106 362.206 36.0004 362.775 36.7674C363.101 37.22 363.67 37.4139 363.791 38.1407C363.222 38.9492 363.183 40.1598 362.857 41.1711C361.393 45.7359 361.963 51.3911 364.035 54.7519C364.687 55.7613 366.222 57.9839 368.305 57.1349C370.134 56.4077 369.726 54.1054 370.254 52.0853C370.377 51.6012 370.295 51.2778 370.538 50.9538V51.0444L372.205 54.3969C373.465 56.3762 375.661 58.4368 377.489 59.811C378.464 60.5382 379.237 61.7913 380.456 62.2349V62.1127H380.376C380.131 61.7504 379.765 61.5874 379.44 61.3048C378.708 60.578 377.896 59.6889 377.326 58.8814C375.62 56.6196 374.117 54.1144 372.775 51.5295C372.124 50.2774 371.554 48.9038 371.028 47.6517C370.782 47.1666 370.782 46.4385 370.376 46.1978C369.766 47.0849 368.873 47.8546 368.424 48.9447C367.651 50.6812 367.571 52.8224 367.287 55.0444C367.123 55.0849 367.196 55.0444 367.123 55.1347C365.824 54.8126 365.375 53.4779 364.888 52.348C363.669 49.4799 363.465 44.8749 364.522 41.5623C364.806 40.7139 366.027 38.0477 365.539 37.2399C365.294 36.4722 364.483 36.0286 364.034 35.422C363.506 34.6544 362.939 33.6855 362.572 32.8372C361.598 30.5737 361.11 28.0702 360.052 25.8081C359.563 24.7575 358.711 23.6665 358.019 22.6979C357.246 21.6069 356.395 20.8389 355.784 19.5469C355.581 19.0944 355.297 18.3755 355.622 17.8901C355.702 17.567 355.866 17.4375 356.19 17.3652C356.718 16.9123 358.223 17.4864 358.751 17.7271C360.254 18.3337 361.515 18.8988 362.775 19.7462C363.344 20.1499 363.954 20.9179 364.686 21.1208H365.54C366.841 21.403 368.304 21.2111 369.521 21.5733C371.676 22.2613 373.627 23.27 375.376 24.3617C380.7 27.7146 385.091 32.4812 388.057 38.1779C388.545 39.1069 388.748 39.9552 389.196 40.9248C390.051 42.905 391.107 44.9241 391.959 46.8641C392.814 48.7627 393.626 50.7031 394.846 52.2783C395.456 53.1266 397.894 53.5702 398.991 54.0148C399.804 54.377 401.063 54.7031 401.797 55.1467C403.177 55.995 404.56 56.9645 405.86 57.8936C406.509 58.377 408.543 59.3874 408.664 60.1932L408.668 60.1713ZM367.217 25.068C366.655 25.0631 366.095 25.131 365.551 25.2698V25.3605H365.631C365.957 26.0069 366.526 26.4515 366.932 27.0173L367.868 28.9564L367.948 28.8661C368.517 28.4623 368.803 27.8158 368.803 26.8473C368.559 26.5648 368.518 26.2812 368.315 25.9986C368.071 25.5949 367.543 25.392 367.217 25.0699V25.068Z" fill="white"/>
</g>
</g>
<path d="M482.233 30.4145H484.439L490.726 24.1271L491.035 21.4578C487.433 18.2788 483.08 16.0704 478.388 15.0413C473.695 14.0122 468.818 14.1964 464.216 15.5765C459.614 16.9565 455.441 19.4869 452.089 22.9285C448.737 26.3701 446.318 30.6094 445.06 35.2459C445.76 34.9589 446.536 34.9124 447.266 35.1136L459.841 33.0396C459.841 33.0396 460.48 31.9808 460.811 32.0471C463.506 29.088 467.229 27.2706 471.22 26.9671C475.21 26.6636 479.166 27.8969 482.277 30.4145H482.233Z" fill="#F44336"/>
<path d="M499.683 35.2459C498.238 29.9241 495.27 25.1398 491.146 21.4796L482.321 30.3043C484.16 31.807 485.634 33.7077 486.631 35.863C487.629 38.0184 488.124 40.3721 488.079 42.7466V44.3132C489.116 44.3044 490.145 44.501 491.105 44.8917C492.066 45.2825 492.939 45.8596 493.676 46.5897C494.412 47.3199 494.997 48.1886 495.396 49.1459C495.794 50.1031 496 51.1299 496 52.1669C496 53.2039 495.794 54.2306 495.396 55.1879C494.997 56.1451 494.412 57.0139 493.676 57.744C492.939 58.4742 492.066 59.0513 491.105 59.442C490.145 59.8328 489.116 60.0294 488.079 60.0206H472.371L470.805 61.609V71.0292L472.371 72.5955H488.079C492.465 72.6297 496.746 71.2511 500.288 68.6637C503.83 66.0764 506.446 62.4176 507.747 58.2287C509.048 54.0398 508.967 49.5432 507.515 45.4042C506.063 41.2651 503.316 37.7034 499.683 35.2459Z" fill="#448AFF"/>
<path d="M456.642 72.5074H472.349V59.9325H456.642C455.523 59.9319 454.417 59.6911 453.399 59.2264L451.193 59.9104L444.861 66.1975L444.309 68.4039C447.86 71.0853 452.193 72.5269 456.642 72.5074Z" fill="#43A047"/>
<path d="M456.642 31.7162C452.386 31.7416 448.244 33.0956 444.795 35.5892C441.346 38.0827 438.762 41.5913 437.403 45.6248C436.045 49.6583 435.981 54.0153 437.219 58.0873C438.457 62.1592 440.936 65.7429 444.309 68.3376L453.421 59.2264C452.263 58.7034 451.249 57.9072 450.466 56.9062C449.684 55.9052 449.156 54.7292 448.928 53.4792C448.699 52.2292 448.778 50.9426 449.156 49.7296C449.535 48.5166 450.202 47.4135 451.1 46.515C451.999 45.6166 453.102 44.9495 454.315 44.5711C455.528 44.1926 456.814 44.1142 458.064 44.3424C459.314 44.5706 460.49 45.0986 461.491 45.8813C462.492 46.6639 463.289 47.6777 463.812 48.8357L472.923 39.7243C471.011 37.2242 468.546 35.2004 465.721 33.8111C462.897 32.4219 459.789 31.7049 456.642 31.7162Z" fill="#FFC107"/>
<g clip-path="url(#clip3_841_408)">
<rect x="515" y="-17" width="100" height="100" fill="#F7F7F7"/>
<path d="M533.025 16.0521C532.524 16.0516 532.034 16.1927 531.61 16.459C531.185 16.7254 530.845 17.1062 530.628 17.5575C530.499 17.8262 530.417 18.1134 530.383 18.4069C530.361 18.6063 530.36 18.8085 530.383 19.0098C530.44 19.5073 530.636 19.9786 530.95 20.3694L549.457 43.5L530.95 66.6306C530.636 67.0214 530.44 67.4927 530.383 67.9902C530.326 68.4877 530.411 68.9912 530.628 69.4425C530.845 69.8938 531.185 70.2746 531.61 70.541C532.034 70.8073 532.524 70.9484 533.025 70.9479H570.14C570.538 70.9481 570.932 70.8586 571.291 70.686C571.651 70.5134 571.966 70.2622 572.215 69.9509L592.049 45.1593C592.426 44.6881 592.631 44.1026 592.631 43.4991C592.631 42.8956 592.426 42.3101 592.049 41.839L572.215 17.0473C571.966 16.736 571.651 16.4848 571.291 16.3122C570.932 16.1397 570.538 16.0501 570.14 16.0503L533.025 16.0521ZM571.211 16.3089L549.458 43.5ZM582.396 29.776L549.451 70.9479Z" fill="#1ABCFE"/>
<path d="M549.457 43.5L530.95 20.3694C530.636 19.9786 530.44 19.5073 530.383 19.0098C530.36 18.8085 530.361 18.6063 530.383 18.4069C530.417 18.1134 530.499 17.8262 530.628 17.5575C530.845 17.1062 531.185 16.7254 531.61 16.459C532.034 16.1927 532.524 16.0516 533.025 16.0521L570.14 16.0503M549.457 43.5L530.95 66.6306C530.636 67.0214 530.44 67.4927 530.383 67.9902C530.326 68.4877 530.411 68.9912 530.628 69.4425C530.845 69.8938 531.185 70.2746 531.61 70.541C532.034 70.8073 532.524 70.9484 533.025 70.9479H570.14C570.538 70.9481 570.932 70.8586 571.291 70.686C571.651 70.5134 571.966 70.2622 572.215 69.9509L592.049 45.1593C592.426 44.6881 592.631 44.1026 592.631 43.4991C592.631 42.8956 592.426 42.3101 592.049 41.839L572.215 17.0473C571.966 16.736 571.651 16.4848 571.291 16.3122C570.932 16.1397 570.538 16.0501 570.14 16.0503M549.457 43.5L570.14 16.0503M571.211 16.3089L549.458 43.5M582.396 29.776L549.451 70.9479" stroke="white" stroke-width="0.5" stroke-linecap="round" stroke-linejoin="round"/>
<path d="M549.457 43.5L530.95 20.3694C530.636 19.9786 530.44 19.5073 530.383 19.0098C530.36 18.8085 530.361 18.6063 530.383 18.4069C530.417 18.1134 530.499 17.8262 530.628 17.5575C530.845 17.1062 531.185 16.7254 531.61 16.459C532.034 16.1927 532.524 16.0516 533.025 16.0521L570.14 16.0503M549.457 43.5L530.95 66.6306C530.636 67.0214 530.44 67.4927 530.383 67.9902C530.326 68.4877 530.411 68.9912 530.628 69.4425C530.845 69.8938 531.185 70.2746 531.61 70.541C532.034 70.8073 532.524 70.9484 533.025 70.9479H570.14C570.538 70.9481 570.932 70.8586 571.291 70.686C571.651 70.5134 571.966 70.2622 572.215 69.9509L592.049 45.1593C592.426 44.6881 592.631 44.1026 592.631 43.4991C592.631 42.8956 592.426 42.3101 592.049 41.839L572.215 17.0473C571.966 16.736 571.651 16.4848 571.291 16.3122C570.932 16.1397 570.538 16.0501 570.14 16.0503M549.457 43.5L570.14 16.0503M571.211 16.3089L549.458 43.5M582.396 29.776L549.451 70.9479" stroke="#0F49C3" stroke-width="0.5" stroke-linecap="round" stroke-linejoin="round"/>
</g>
<g clip-path="url(#clip4_841_408)">
<path d="M673.078 1H627.922C616.919 1 608 9.91933 608 20.9219V66.0781C608 77.0807 616.919 86 627.922 86H673.078C684.081 86 693 77.0807 693 66.0781V20.9219C693 9.91933 684.081 1 673.078 1Z" fill="#242938"/>
<path d="M650.261 10.6289C633.403 10.6289 634.455 17.9396 634.455 17.9396L634.474 25.5132H650.561V27.7876H628.084C628.084 27.7876 617.297 26.5637 617.297 43.5734C617.297 60.583 626.712 59.9804 626.712 59.9804H632.332V52.087C632.332 52.087 632.029 42.6716 641.597 42.6716H657.552C657.552 42.6716 666.517 42.8163 666.517 34.0076V19.443C666.517 19.443 667.878 10.6289 650.261 10.6289ZM641.39 15.7219C641.77 15.7216 642.147 15.7963 642.498 15.9416C642.849 16.087 643.169 16.3002 643.437 16.569C643.706 16.8378 643.919 17.157 644.065 17.5083C644.21 17.8596 644.285 18.2361 644.284 18.6162C644.285 18.9964 644.21 19.3729 644.065 19.7241C643.919 20.0754 643.706 20.3945 643.437 20.6633C643.168 20.9321 642.849 21.1452 642.498 21.2906C642.147 21.4359 641.77 21.5105 641.39 21.5102C641.01 21.5105 640.634 21.4358 640.282 21.2905C639.931 21.1451 639.612 20.932 639.343 20.6632C639.074 20.3944 638.861 20.0753 638.716 19.724C638.57 19.3728 638.496 18.9964 638.496 18.6162C638.496 18.2361 638.57 17.8596 638.716 17.5084C638.861 17.1571 639.074 16.8379 639.343 16.5691C639.612 16.3003 639.931 16.0871 640.282 15.9417C640.633 15.7964 641.01 15.7217 641.39 15.7219Z" fill="url(#paint3_linear_841_408)"/>
<path d="M650.739 76.6892C667.597 76.6892 666.545 69.3788 666.545 69.3788L666.526 61.8049H650.439V59.5308H672.916C672.916 59.5308 683.703 60.7543 683.703 43.7444C683.703 26.7344 674.288 27.3377 674.288 27.3377H668.668V35.2311C668.668 35.2311 668.971 44.6465 659.403 44.6465H643.448C643.448 44.6465 634.483 44.5014 634.483 53.3102V67.8751C634.483 67.8751 633.122 76.6892 650.739 76.6892ZM659.61 71.5962C659.23 71.5965 658.853 71.5218 658.502 71.3765C658.151 71.2312 657.832 71.018 657.563 70.7492C657.294 70.4804 657.081 70.1613 656.935 69.81C656.79 69.4588 656.715 69.0823 656.716 68.7022C656.715 68.322 656.79 67.9455 656.935 67.5942C657.081 67.2429 657.294 66.9237 657.563 66.6549C657.831 66.3861 658.151 66.1729 658.502 66.0275C658.853 65.8822 659.23 65.8075 659.61 65.8079C659.99 65.8075 660.367 65.8822 660.718 66.0275C661.069 66.1729 661.388 66.3861 661.657 66.6549C661.926 66.9237 662.139 67.2429 662.285 67.5942C662.43 67.9455 662.505 68.322 662.504 68.7022C662.505 69.0823 662.43 69.4588 662.284 69.81C662.139 70.1613 661.926 70.4804 661.657 70.7492C661.388 71.018 661.069 71.2312 660.718 71.3765C660.367 71.5218 659.99 71.5965 659.61 71.5962Z" fill="url(#paint4_linear_841_408)"/>
</g>
<g clip-path="url(#clip5_841_408)">
<path d="M762.078 1H716.922C705.919 1 697 9.91933 697 20.9219V66.0781C697 77.0807 705.919 86 716.922 86H762.078C773.081 86 782 77.0807 782 66.0781V20.9219C782 9.91933 773.081 1 762.078 1Z" fill="#242938"/>
<path d="M708.195 34.2722C708.195 34.2722 706.623 33.139 708.509 31.6259L712.904 27.696C712.904 27.696 714.162 26.3728 715.491 27.5256L756.048 58.2316V72.9558C756.048 72.9558 756.029 75.2681 753.061 75.0124L708.195 34.2722Z" fill="#2489CA"/>
<path d="M718.648 43.763L708.195 53.2667C708.195 53.2667 707.12 54.0659 708.195 55.494L713.048 59.9083C713.048 59.9083 714.201 61.1465 715.904 59.738L726.986 51.3346L718.648 43.763Z" fill="#1070B3"/>
<path d="M737.001 43.8417L756.173 29.2024L756.048 14.5568C756.048 14.5568 755.23 11.3604 752.498 13.0242L726.986 36.2435L737.001 43.8417Z" fill="#0877B9"/>
<path d="M753.061 75.0323C754.175 76.1719 755.524 75.7987 755.524 75.7987L770.465 68.4365C772.377 67.133 772.109 65.5153 772.109 65.5153V21.5521C772.109 19.6197 770.131 18.9519 770.131 18.9519L757.182 12.7097C754.352 10.9609 752.498 13.0242 752.498 13.0242C752.498 13.0242 754.882 11.3082 756.048 14.5568V72.6872C756.05 73.0836 755.963 73.4754 755.793 73.8337C755.452 74.5214 754.712 75.1632 752.937 74.8946L753.061 75.0323Z" fill="#3C99D4"/>
</g>
<rect x="787" y="1" width="84" height="85" rx="10" fill="#D9D9D9"/>
<path d="M833.811 15.634L830.783 13.0257C830.386 12.6848 829.913 12.418 829.391 12.242C828.869 12.0659 828.311 11.9844 827.751 12.0025C827.191 12.0206 826.641 12.1379 826.136 12.3471C825.632 12.5563 825.182 12.8529 824.817 13.2184L794.985 43.0393C794.315 43.7095 793.964 44.5728 794.003 45.4561C794.042 46.3395 794.467 47.1775 795.194 47.8022L825.619 73.9743C826.015 74.3151 826.489 74.5819 827.011 74.758C827.533 74.9341 828.091 75.0156 828.651 74.9975C829.211 74.9794 829.761 74.8621 830.265 74.6529C830.77 74.4437 831.22 74.1471 831.585 73.7816L834 71.366" fill="#902D87"/>
<path d="M833.811 15.634L830.783 13.0257C830.386 12.6848 829.913 12.418 829.391 12.242C828.869 12.0659 828.311 11.9844 827.751 12.0025C827.191 12.0206 826.641 12.1379 826.136 12.3471C825.632 12.5563 825.182 12.8529 824.817 13.2184L794.985 43.0393C794.315 43.7095 793.964 44.5728 794.003 45.4561C794.042 46.3395 794.467 47.1775 795.194 47.8022L825.619 73.9743C826.015 74.3151 826.489 74.5819 827.011 74.758C827.533 74.9341 828.091 75.0156 828.651 74.9975C829.211 74.9794 829.761 74.8621 830.265 74.6529C830.77 74.4437 831.22 74.1471 831.585 73.7816L834 71.366" stroke="black" stroke-width="0.5" stroke-linecap="round" stroke-linejoin="round"/>
<path d="M821.709 28.2761L832.644 39.2093C833.276 39.8411 833.646 40.6888 833.68 41.5821C833.713 42.4755 833.408 43.3485 832.824 44.0259L820.22 58.6743C819.637 59.3515 819.332 60.2237 819.366 61.1163C819.399 62.0088 819.769 62.8557 820.4 63.4874L831.277 74.3656C831.621 74.7102 832.033 74.9799 832.487 75.1579C832.941 75.3359 833.426 75.4183 833.913 75.4C834.4 75.3817 834.878 75.2631 835.318 75.0516C835.757 74.8401 836.147 74.5403 836.465 74.1708L862.408 44.0242C862.99 43.3467 863.295 42.4744 863.261 41.5818C863.227 40.6893 862.857 39.8425 862.226 39.211L835.766 12.7513C835.421 12.4067 835.009 12.137 834.555 11.959C834.102 11.781 833.616 11.6986 833.129 11.7169C832.642 11.7351 832.164 11.8538 831.725 12.0653C831.286 12.2768 830.895 12.5766 830.577 12.946L821.528 23.4613C820.946 24.1385 820.641 25.0107 820.674 25.9032C820.708 26.7958 821.077 27.6445 821.709 28.2761Z" fill="url(#paint5_linear_841_408)" stroke="black" stroke-width="0.5" stroke-linecap="round" stroke-linejoin="round"/>
<path d="M855.488 52.0638L853.352 54.5411C853.034 54.9098 852.643 55.2089 852.204 55.4197C851.765 55.6306 851.288 55.7487 850.801 55.7666C850.314 55.7846 849.829 55.702 849.376 55.524C848.923 55.3461 848.511 55.0766 848.167 54.7324L837.292 43.8577C836.66 43.226 836.29 42.3787 836.257 41.4857C836.223 40.5928 836.529 39.7201 837.112 39.0428L846.161 28.5276C846.478 28.1582 846.869 27.8583 847.308 27.6468C847.747 27.4353 848.225 27.3167 848.712 27.2984C849.199 27.2801 849.685 27.3626 850.139 27.5406C850.592 27.7185 851.004 27.9883 851.349 28.3328L853.74 30.7252" fill="#DF93C2"/>
<path d="M855.488 52.0638L853.352 54.5411C853.034 54.9098 852.643 55.2089 852.204 55.4197C851.765 55.6306 851.288 55.7487 850.801 55.7666C850.314 55.7846 849.829 55.702 849.376 55.524C848.923 55.3461 848.511 55.0766 848.167 54.7324L837.292 43.8577C836.66 43.226 836.29 42.3787 836.257 41.4857C836.223 40.5928 836.529 39.7201 837.112 39.0428L846.161 28.5276C846.478 28.1582 846.869 27.8583 847.308 27.6468C847.747 27.4353 848.225 27.3167 848.712 27.2984C849.199 27.2801 849.685 27.3626 850.139 27.5406C850.592 27.7185 851.004 27.9883 851.349 28.3328L853.74 30.7252" stroke="black" stroke-width="0.5" stroke-linecap="round" stroke-linejoin="round"/>
<path d="M844 30.7053L846.136 28.2279C846.454 27.8592 846.844 27.5601 847.283 27.3493C847.722 27.1384 848.2 27.0203 848.686 27.0024C849.173 26.9845 849.658 27.067 850.111 27.245C850.565 27.4229 850.976 27.6924 851.321 28.0366L862.195 38.9113C862.827 39.5431 863.197 40.3903 863.231 41.2833C863.264 42.1763 862.959 43.0489 862.376 43.7262L853.327 54.2414C853.009 54.6108 852.618 54.9107 852.179 55.1222C851.74 55.3337 851.262 55.4523 850.775 55.4706C850.288 55.4889 849.803 55.4064 849.349 55.2285C848.895 55.0505 848.483 54.7808 848.138 54.4362L845.748 52.0438" fill="#DF93C2"/>
<path d="M844 30.7053L846.136 28.2279C846.454 27.8592 846.844 27.5601 847.283 27.3493C847.722 27.1384 848.2 27.0203 848.686 27.0024C849.173 26.9845 849.658 27.067 850.111 27.245C850.565 27.4229 850.976 27.6924 851.321 28.0366L862.195 38.9113C862.827 39.5431 863.197 40.3903 863.231 41.2833C863.264 42.1763 862.959 43.0489 862.376 43.7262L853.327 54.2414C853.009 54.6108 852.618 54.9107 852.179 55.1222C851.74 55.3337 851.262 55.4523 850.775 55.4706C850.288 55.4889 849.803 55.4064 849.349 55.2285C848.895 55.0505 848.483 54.7808 848.138 54.4362L845.748 52.0438" stroke="black" stroke-width="0.5" stroke-linecap="round" stroke-linejoin="round"/>
<g clip-path="url(#clip6_841_408)">
<path d="M883.188 47.75L883.139 47.7854L883.089 47.8137C882.094 48.4642 880.938 48.8236 879.749 48.8515C878.138 48.8125 877.55 48.2458 877.515 46.6875C877.55 44.9025 878.145 44.35 880.16 44.226L882.94 44.095L883.064 44.0879H883.185L883.188 47.75ZM888.249 48.6283C888.211 48.4871 888.127 48.3627 888.011 48.2747C887.894 48.1868 887.751 48.1405 887.605 48.1431C887.519 48.146 887.434 48.1567 887.35 48.175C886.921 48.2812 886.68 48.3096 886.351 48.3344C885.721 48.3627 885.607 48.1183 885.572 47.4135V37.7377C885.561 37.625 885.528 37.5156 885.475 37.4158C885.421 37.3161 885.348 37.2281 885.26 37.1569L885.2 37.1144C885.181 37.0978 885.157 37.0813 885.129 37.0648C884.605 36.7567 883.734 36.5087 882.99 36.321L882.937 36.3033C881.594 35.984 880.207 35.8977 878.836 36.0483C878.411 36.0908 877.27 36.2785 876.888 36.4096C876.774 36.445 876.417 36.6185 876.402 36.9585C876.41 37.1356 876.608 37.7023 876.608 37.7023C876.739 38.0954 876.877 38.191 877.125 38.2442C877.327 38.2654 877.762 38.1733 878.049 38.1273C879.123 37.9025 880.228 37.8641 881.315 38.014C882.579 38.2087 883.064 38.5983 883.064 38.5983V42.3525L882.955 42.356L880.256 42.4269C876.643 42.5402 874.979 43.971 875 46.854C874.996 48.1644 875.407 49.2162 876.186 49.8927C876.912 50.5302 877.979 50.8702 879.261 50.8702H879.264C880.716 50.8793 882.125 50.3722 883.238 49.4394L883.355 49.3473L883.415 49.4819C883.548 49.7945 883.753 50.0713 884.014 50.2898C884.274 50.5082 884.582 50.6622 884.913 50.7392C885.389 50.8598 885.883 50.897 886.372 50.849C886.787 50.7923 887.332 50.7179 887.941 50.431C888.278 50.2717 888.515 50.0769 888.497 49.7227C888.444 49.3519 888.361 48.986 888.249 48.6283ZM928.132 50.8029H926.822C926.734 50.8074 926.646 50.7937 926.564 50.7626C926.481 50.7315 926.406 50.6838 926.344 50.6223C926.24 50.5019 926.189 50.3295 926.191 50.1052V37.674C926.182 37.4402 926.238 37.2678 926.361 37.1569C926.465 37.053 926.621 37.0022 926.829 37.0046H928.015C928.238 37.0046 928.387 37.0506 928.504 37.1462C928.621 37.2419 928.685 37.4119 928.681 37.6067L928.695 37.9396L928.706 38.2194L928.894 38.014C929.349 37.5002 929.932 37.116 930.584 36.9001C931.236 36.6843 931.933 36.6446 932.605 36.785C932.853 36.831 932.945 37.079 932.924 37.21C932.924 37.2737 932.922 37.3281 932.917 37.3729L932.719 38.6267C932.711 38.7247 932.669 38.8169 932.599 38.8864C932.53 38.956 932.438 38.9983 932.34 39.0056C932.227 38.9992 932.115 38.9874 932.003 38.9702C931.861 38.949 931.702 38.9206 931.419 38.9206C930.498 38.9206 929.474 39.5262 928.791 40.4719L928.77 40.5002V50.1052C928.77 50.3177 928.716 50.4853 928.61 50.6081C928.55 50.674 928.476 50.7257 928.393 50.7594C928.31 50.7931 928.221 50.8079 928.132 50.8029ZM920.032 42.3915H914.004C914.089 39.3527 915.247 38.106 917.156 38.106C919.012 38.106 920.061 39.126 920.061 41.5096C920.061 41.6973 920.061 42.1683 920.032 42.3915ZM917.213 36.1723C913.838 36.1723 911.299 38.5204 911.299 43.8577C911.299 48.7523 913.59 51.1535 917.904 51.1535C918.587 51.1535 919.398 51.0756 920.17 50.9162C920.296 50.8926 920.42 50.8655 920.542 50.8348C920.941 50.7207 921.332 50.5787 921.711 50.4098C921.98 50.3071 922.189 50.0981 922.203 49.8396C922.131 49.445 922.036 49.0548 921.92 48.6708C921.814 48.4123 921.58 48.2494 921.343 48.2635C921.261 48.2635 920.103 48.515 920.032 48.5362C919.354 48.7123 918.657 48.8039 917.957 48.809C914.89 48.809 913.976 47.3427 913.976 44.3252V44.1056H922.016C922.131 44.0963 922.239 44.047 922.322 43.9661C922.405 43.8853 922.457 43.778 922.469 43.6629L922.476 43.5567C922.504 43.0325 922.522 42.4765 922.522 42.0337C922.522 38.3256 920.726 36.1723 917.213 36.1723ZM936.235 56.4023H936.147C935.672 56.4023 935.283 56.3669 934.9 56.2925C934.663 56.25 934.574 55.9419 934.624 55.524C934.624 55.524 934.652 55.0777 934.72 54.7625C934.78 54.4437 934.932 54.295 935.102 54.295H935.152L935.283 54.3021C935.357 54.3056 935.467 54.3198 935.57 54.3304C935.803 54.3552 936.041 54.38 936.228 54.38C937.794 54.3623 938.64 53.7885 939.239 52.3365L939.961 50.5727L940.032 50.385L940.057 50.3071L940.032 50.2256L935.205 37.4615C935.182 37.4091 935.172 37.352 935.176 37.295C935.176 37.2184 935.201 37.1438 935.247 37.0825C935.31 37.0238 935.392 36.9898 935.477 36.9869H937.309C937.574 36.9869 937.769 37.1285 937.829 37.334L941.01 46.4715L941.222 47.0877L941.438 46.475L944.721 37.4012C944.747 37.2832 944.812 37.1774 944.906 37.1014C945 37.0254 945.117 36.9838 945.238 36.9833H945.252L945.302 36.9869H946.818C946.941 36.9869 947.033 37.0117 947.094 37.0612C947.122 37.0854 947.144 37.1154 947.159 37.1491C947.173 37.1828 947.18 37.2193 947.179 37.256C947.177 37.336 947.162 37.415 947.133 37.4898L941.732 51.9752C940.556 55.2017 939.069 56.4023 936.235 56.4023ZM957.992 50.771C957.844 50.7771 957.698 50.741 957.57 50.667C957.442 50.593 957.338 50.4841 957.269 50.3531L954.386 45.8977L954.284 45.749L954.188 45.8977L951.305 50.346C951.234 50.4768 951.128 50.5855 951 50.6604C950.871 50.7354 950.724 50.7736 950.576 50.771L950.53 50.764H948.989C948.884 50.77 948.78 50.74 948.695 50.679C948.655 50.6442 948.624 50.6011 948.603 50.5527C948.582 50.5043 948.573 50.4518 948.575 50.3992C948.575 50.2717 948.621 50.1371 948.695 50.0273L952.867 43.6912L952.917 43.6275L952.867 43.5637L949.021 37.635C948.961 37.5497 948.928 37.4487 948.925 37.3446C948.925 37.0967 949.152 36.9444 949.371 36.9444H950.816C951.132 36.9444 951.376 37.079 951.482 37.2915L954.188 41.3998L954.284 41.5415L954.376 41.3998L957.067 37.3162C957.13 37.1995 957.225 37.1027 957.34 37.0369C957.455 36.9712 957.587 36.9391 957.719 36.9444H959.203C959.416 36.9444 959.653 37.0967 959.653 37.3446C959.653 37.4319 959.617 37.5264 959.547 37.6279L955.704 43.5637L955.658 43.6275L955.704 43.6912L959.865 50.0131C959.947 50.1248 959.993 50.2577 960 50.3956C960.003 50.4486 959.994 50.5015 959.974 50.5506C959.954 50.5996 959.923 50.6435 959.883 50.679C959.795 50.739 959.689 50.7688 959.582 50.764H958.049L957.992 50.771ZM895.506 50.8065C894.826 50.8065 894.171 50.6967 893.601 50.4877C893.132 50.3434 892.708 50.0798 892.372 49.7227C891.55 48.8196 891.479 47.6969 891.469 46.2165V32.0498C891.471 31.9648 891.501 31.888 891.557 31.8196C892.062 31.2598 892.706 30.8443 893.424 30.6154C893.466 30.6012 893.505 30.5953 893.541 30.5977C893.672 30.5968 893.798 30.6477 893.891 30.7394C894.005 30.8574 894.06 31.0227 894.058 31.2352V46.305C894.065 47.0877 894.252 47.711 894.596 48.1006C894.89 48.4265 895.368 48.5894 895.974 48.5894C896.12 48.5894 896.29 48.5776 896.484 48.554C896.873 48.494 897.257 48.4016 897.631 48.2777C897.703 48.2504 897.778 48.2349 897.854 48.2317C898.095 48.2317 898.304 48.4017 898.386 48.6531C898.386 48.6531 898.598 49.3756 898.626 49.7156C898.644 50.0131 898.379 50.2115 898.134 50.2965C897.294 50.6168 896.405 50.7893 895.506 50.8065ZM908.741 48.646C908.664 48.391 908.455 48.221 908.207 48.221C908.13 48.2242 908.055 48.2398 907.984 48.2671C907.469 48.4425 906.933 48.5473 906.39 48.5787L906.326 48.5858C905.7 48.5835 905.238 48.4182 904.938 48.09C904.654 47.7819 904.456 47.2754 904.442 46.3369V46.2873L904.516 38.8285H907.569C907.72 38.8358 907.869 38.7948 907.994 38.7117C908.146 38.5912 908.171 38.3929 908.164 38.2867V37.3481C908.167 37.1474 908.11 37.001 907.994 36.909C907.874 36.8345 907.735 36.7975 907.594 36.8027H904.516V32.1596C904.516 31.9424 904.461 31.7759 904.35 31.6602C904.254 31.5716 904.129 31.5212 903.999 31.5185C903.966 31.5162 903.924 31.5221 903.872 31.5362C903.695 31.6035 903.213 31.77 902.689 32.1383C902.492 32.2851 902.307 32.4473 902.136 32.6235C902.084 32.6863 902.055 32.7651 902.055 32.8467L901.984 36.7531H900.404C900.324 36.75 900.243 36.7632 900.168 36.7918C900.092 36.8204 900.024 36.8638 899.965 36.9196C899.859 37.0457 899.805 37.2082 899.816 37.3729V38.23C899.816 38.4177 899.813 38.5771 899.955 38.7329C900.117 38.8817 900.273 38.871 900.457 38.8746H901.938L901.796 45.8942L901.8 46.1952C901.807 47.6827 901.878 48.809 902.703 49.7192C903.333 50.4062 904.484 50.7994 905.855 50.8065C907.091 50.8065 908.051 50.4771 908.494 50.2965C908.727 50.1973 908.993 50.006 908.982 49.7121C908.982 49.4323 908.741 48.646 908.741 48.646Z" fill="#0085B6"/>
</g>
<defs>
<linearGradient id="paint0_linear_841_408" x1="1250.8" y1="0.999979" x2="4376.36" y2="6626.29" gradientUnits="userSpaceOnUse">
<stop stop-color="#E6AD10"/>
<stop offset="1" stop-color="#C87E0E"/>
</linearGradient>
<linearGradient id="paint1_linear_841_408" x1="1163.26" y1="22.2084" x2="3770.73" y2="5079.29" gradientUnits="userSpaceOnUse">
<stop stop-color="#F6D751"/>
<stop offset="1" stop-color="#E6AD10"/>
</linearGradient>
<linearGradient id="paint2_linear_841_408" x1="796.398" y1="43.4172" x2="2383.91" y2="3805.72" gradientUnits="userSpaceOnUse">
<stop stop-color="#F9E589"/>
<stop offset="1" stop-color="#F6D751"/>
</linearGradient>
<linearGradient id="paint3_linear_841_408" x1="623.679" y1="16.5709" x2="656.587" y2="49.1512" gradientUnits="userSpaceOnUse">
<stop stop-color="#387EB8"/>
<stop offset="1" stop-color="#366994"/>
</linearGradient>
<linearGradient id="paint4_linear_841_408" x1="643.878" y1="37.4919" x2="679.218" y2="70.8999" gradientUnits="userSpaceOnUse">
<stop stop-color="#FFE052"/>
<stop offset="1" stop-color="#FFC331"/>
</linearGradient>
<linearGradient id="paint5_linear_841_408" x1="841.313" y1="11.7144" x2="884.5" y2="12" gradientUnits="userSpaceOnUse">
<stop offset="0.44591" stop-color="#DA7CBF"/>
</linearGradient>
<clipPath id="clip0_841_408">
<rect width="80" height="80" fill="white" transform="translate(168 4)"/>
</clipPath>
<clipPath id="clip1_841_408">
<rect width="63.6257" height="85" fill="white" transform="translate(11 1)"/>
</clipPath>
<clipPath id="clip2_841_408">
<rect width="85" height="85" fill="white" transform="translate(341 1)"/>
</clipPath>
<clipPath id="clip3_841_408">
<rect x="519" y="1" width="85" height="85" rx="10" fill="white"/>
</clipPath>
<clipPath id="clip4_841_408">
<rect width="85" height="85" fill="white" transform="translate(608 1)"/>
</clipPath>
<clipPath id="clip5_841_408">
<rect width="85" height="85" fill="white" transform="translate(697 1)"/>
</clipPath>
<clipPath id="clip6_841_408">
<rect width="85" height="85" fill="white" transform="translate(875 1)"/>
</clipPath>
</defs>
</svg>
